# xmcd
#
# Track frame offsets: 
#        150
#        12240
#        25067
#        34162
#        45638
#        59191
#        71638
#        86509
#        100448
#        112380
#        120275
#        133793
#        149240
#        161109
#
# Disc length: 2373 seconds
#
# Revision: 0
# Processed by: cddbd v1.5.2PL0 Copyright (c) Steve Scherf et al.
# Submitted via: ExactAudioCopy v1.0b1
#
DISCID=d409430e
DTITLE=Various Artist - Country Sunshine [disc 02]
DYEAR=2005
DGENRE=Country
TTITLE0=Barbara Fairchild - Color My World
TTITLE1=Dickey Lee - Never Ending Song of Love
TTITLE2=Paul Evans - Happy-Go-Lucky Me
TTITLE3=Sandy Posey - Put a Little Love in Your Heart
TTITLE4=Daniel Boone - Beautiful Sunday
TTITLE5=Johnny Rodriguez - Put a Song in My Heart
TTITLE6=Jody Miller - Baby I'm Yours
TTITLE7=Donna Fargo - You Can't Be a Beacon (If You Light Don't Shine)
TTITLE8=Bill Phillips - I Saw the Light
TTITLE9=Susan Raye - (I've Got A) Happy Heart
TTITLE10=Johnny Rodriguez - Somebody Loves Me
TTITLE11=Margo Smith - You Light Up My Life
TTITLE12=Billy Joe Royal - Let Your Love Flow
TTITLE13=Skeeter Davis - Oh Happy Day
EXTD=
EXTT0=
EXTT1=
EXTT2=
EXTT3=
EXTT4=
EXTT5=
EXTT6=
EXTT7=
EXTT8=
EXTT9=
EXTT10=
EXTT11=
EXTT12=
EXTT13=
PLAYORDER=
